<?xml version="1.0" encoding="utf-8"?>
<!-- Generator: Adobe Illustrator 27.0.0, SVG Export Plug-In . SVG Version: 6.00 Build 0)  -->
<svg version="1.1" id="Layer_1" xmlns="http://www.w3.org/2000/svg" xmlns:xlink="http://www.w3.org/1999/xlink" x="0px" y="0px"
	 viewBox="0 0 1731 651.2" style="enable-background:new 0 0 1731 651.2;" xml:space="preserve">
<g id="DRS">
	<rect x="509.4" y="119.7" width="2.4" height="411.8"/>
	<g id="text">
		<g>
			<path d="M667.8,457.2c-1.1-1.6-2.5-2.7-4.3-3.4c-1.8-0.7-3.7-1.1-5.7-1.1c-1.2,0-2.3,0.1-3.4,0.4c-1.1,0.3-2.1,0.7-3,1.3
				c-0.9,0.6-1.6,1.4-2.1,2.3c-0.5,0.9-0.8,2.1-0.8,3.3c0,1.9,0.7,3.4,2,4.4c1.3,1,3,1.9,5,2.7c2,0.8,4.2,1.5,6.5,2.2
				c2.4,0.7,4.5,1.7,6.5,2.9c2,1.2,3.6,2.9,5,4.9c1.3,2,2,4.7,2,8.1c0,3.1-0.6,5.7-1.7,8c-1.1,2.3-2.6,4.2-4.5,5.7
				c-1.9,1.5-4.1,2.6-6.6,3.4c-2.5,0.8-5.2,1.1-8,1.1c-3.5,0-6.9-0.6-10.2-1.8c-3.3-1.2-6.1-3.2-8.4-6l7.6-7.4
				c1.2,1.9,2.9,3.3,4.9,4.4c2,1,4.1,1.6,6.4,1.6c1.2,0,2.4-0.2,3.5-0.5c1.2-0.3,2.3-0.8,3.2-1.4c1-0.6,1.7-1.5,2.3-2.5
				c0.6-1,0.9-2.1,0.9-3.4c0-2.1-0.7-3.7-2-4.8c-1.3-1.1-3-2.1-5-2.9c-2-0.8-4.2-1.5-6.5-2.2c-2.4-0.7-4.5-1.7-6.5-2.9
				c-2-1.2-3.6-2.8-5-4.8c-1.3-2-2-4.7-2-8.1c0-3,0.6-5.5,1.8-7.6c1.2-2.1,2.8-3.9,4.7-5.4c2-1.4,4.2-2.5,6.7-3.2s5.1-1,7.7-1
				c3,0,5.9,0.5,8.7,1.4c2.8,0.9,5.4,2.4,7.6,4.5L667.8,457.2z"/>
			<path d="M797.1,454.1h-17.5v-9.2h45.1v9.2h-17.5v47.8h-10.1V454.1z"/>
			<path d="M989.3,481c0,3.4-0.6,6.5-1.8,9.3c-1.2,2.8-2.8,5.1-4.8,7c-2,1.9-4.5,3.4-7.2,4.5c-2.8,1-5.8,1.6-9.1,1.6
				c-3.3,0-6.3-0.5-9.1-1.6c-2.8-1-5.2-2.5-7.3-4.5c-2.1-1.9-3.7-4.3-4.8-7c-1.2-2.8-1.7-5.9-1.7-9.3v-36h10.1v35.7
				c0,1.4,0.2,2.9,0.6,4.4c0.4,1.5,1.1,2.9,2.1,4.2c1,1.3,2.3,2.3,3.9,3.2c1.6,0.8,3.7,1.2,6.1,1.2s4.4-0.4,6.1-1.2
				c1.6-0.8,3-1.9,3.9-3.2s1.7-2.7,2.1-4.2s0.6-3,0.6-4.4v-35.7h10.1V481z"/>
			<path d="M1117.3,444.9h22.4c3.8,0,7.4,0.6,10.9,1.7c3.5,1.2,6.6,2.9,9.3,5.3c2.7,2.4,4.8,5.3,6.4,8.9c1.6,3.6,2.4,7.8,2.4,12.6
				c0,4.9-0.9,9.1-2.8,12.7c-1.9,3.6-4.2,6.5-7.2,8.8c-2.9,2.3-6.2,4.1-9.7,5.2c-3.6,1.2-7.1,1.7-10.5,1.7h-21.2V444.9z M1135,492.7
				c3.2,0,6.2-0.4,9-1.1c2.8-0.7,5.3-1.8,7.4-3.4s3.7-3.5,4.9-6c1.2-2.4,1.8-5.4,1.8-8.9c0-3.4-0.5-6.4-1.6-8.8
				c-1.1-2.5-2.6-4.5-4.5-6s-4.2-2.7-6.8-3.4c-2.6-0.7-5.5-1.1-8.6-1.1h-9.3v38.6H1135z"/>
			<path d="M1283.7,444.9h10.1v57h-10.1V444.9z"/>
			<path d="M1413.9,473.7c0-4.6,0.8-8.7,2.3-12.4c1.5-3.7,3.6-6.9,6.2-9.5c2.7-2.6,5.8-4.7,9.5-6.1c3.7-1.4,7.7-2.1,12.1-2.1
				c4.5-0.1,8.5,0.6,12.2,2c3.7,1.4,6.9,3.4,9.6,6c2.7,2.6,4.8,5.8,6.3,9.5c1.5,3.7,2.3,7.8,2.3,12.4c0,4.5-0.7,8.5-2.3,12.1
				c-1.5,3.6-3.6,6.8-6.3,9.4c-2.7,2.6-5.9,4.7-9.6,6.2s-7.8,2.2-12.2,2.3c-4.4,0-8.4-0.7-12.1-2.1c-3.7-1.4-6.8-3.4-9.5-6
				c-2.7-2.6-4.7-5.7-6.2-9.4S1413.9,478.1,1413.9,473.7z M1424.6,473c0,3.1,0.5,5.9,1.4,8.4c0.9,2.6,2.3,4.8,4,6.7
				c1.7,1.9,3.8,3.4,6.2,4.4c2.4,1.1,5.1,1.6,8,1.6c2.9,0,5.6-0.5,8-1.6c2.4-1.1,4.5-2.5,6.2-4.4c1.7-1.9,3-4.1,4-6.7
				c0.9-2.6,1.4-5.4,1.4-8.4c0-2.8-0.5-5.5-1.4-8c-0.9-2.5-2.3-4.6-4-6.5c-1.7-1.9-3.8-3.3-6.2-4.3c-2.4-1-5.1-1.6-8-1.6
				c-3,0-5.6,0.5-8,1.6c-2.4,1-4.4,2.5-6.2,4.3c-1.7,1.8-3,4-4,6.5C1425,467.5,1424.6,470.2,1424.6,473z"/>
			<path d="M1603.5,457.2c-1.1-1.6-2.5-2.7-4.3-3.4c-1.8-0.7-3.7-1.1-5.7-1.1c-1.2,0-2.3,0.1-3.4,0.4c-1.1,0.3-2.1,0.7-3,1.3
				c-0.9,0.6-1.6,1.4-2.1,2.3c-0.5,0.9-0.8,2.1-0.8,3.3c0,1.9,0.7,3.4,2,4.4c1.3,1,3,1.9,5,2.7c2,0.8,4.2,1.5,6.5,2.2
				s4.5,1.7,6.5,2.9c2,1.2,3.6,2.9,5,4.9c1.3,2,2,4.7,2,8.1c0,3.1-0.6,5.7-1.7,8c-1.1,2.3-2.6,4.2-4.5,5.7s-4.1,2.6-6.6,3.4
				c-2.5,0.8-5.2,1.1-8,1.1c-3.5,0-6.9-0.6-10.2-1.8c-3.3-1.2-6.1-3.2-8.4-6l7.6-7.4c1.2,1.9,2.9,3.3,4.9,4.4c2,1,4.1,1.6,6.4,1.6
				c1.2,0,2.4-0.2,3.5-0.5c1.2-0.3,2.3-0.8,3.2-1.4c1-0.6,1.7-1.5,2.3-2.5c0.6-1,0.9-2.1,0.9-3.4c0-2.1-0.7-3.7-2-4.8
				c-1.3-1.1-3-2.1-5-2.9c-2-0.8-4.2-1.5-6.5-2.2c-2.4-0.7-4.5-1.7-6.5-2.9c-2-1.2-3.6-2.8-5-4.8c-1.3-2-2-4.7-2-8.1
				c0-3,0.6-5.5,1.8-7.6c1.2-2.1,2.8-3.9,4.7-5.4c2-1.4,4.2-2.5,6.7-3.2s5.1-1,7.7-1c3,0,5.9,0.5,8.7,1.4c2.8,0.9,5.3,2.4,7.6,4.5
				L1603.5,457.2z"/>
		</g>
		<g>
			<path d="M636,284.4h46.3c6.1,0,11.9,0.6,17.3,1.8c5.5,1.2,10.3,3.2,14.4,5.9c4.1,2.8,7.4,6.5,9.8,11.2c2.4,4.7,3.6,10.5,3.6,17.5
				c0,8.5-2.2,15.6-6.6,21.6c-4.4,5.9-10.8,9.7-19.3,11.2l30.4,50.6h-31.6l-25-47.9h-13v47.9H636V284.4z M662.4,334h15.6
				c2.4,0,4.9-0.1,7.5-0.2c2.6-0.2,5-0.7,7.2-1.5c2.1-0.8,3.9-2.2,5.3-4c1.4-1.8,2.1-4.3,2.1-7.6c0-3-0.6-5.5-1.9-7.3
				c-1.2-1.8-2.8-3.2-4.7-4.1c-1.9-1-4.1-1.6-6.6-1.9c-2.5-0.3-4.9-0.5-7.3-0.5h-17.3V334z"/>
			<path d="M761.6,284.4H843v24.4h-55v22.3h51.9v24.4H788v24.4h58v24.4h-84.4V284.4z"/>
			<path d="M940.7,313.7c-2.1-2.7-5-4.7-8.7-6c-3.7-1.3-7.1-1.9-10.4-1.9c-1.9,0-3.9,0.2-5.9,0.7c-2,0.5-3.9,1.2-5.7,2.1
				c-1.8,1-3.3,2.2-4.4,3.8c-1.1,1.6-1.7,3.5-1.7,5.7c0,3.6,1.4,6.4,4.1,8.3c2.7,1.9,6.1,3.5,10.2,4.9c4.1,1.4,8.5,2.7,13.3,4.1
				c4.7,1.4,9.2,3.3,13.3,5.7c4.1,2.5,7.5,5.8,10.2,10c2.7,4.2,4.1,9.8,4.1,16.7c0,6.7-1.2,12.5-3.7,17.4c-2.5,5-5.8,9.1-10.1,12.3
				c-4.2,3.3-9.1,5.7-14.7,7.3c-5.6,1.6-11.5,2.4-17.7,2.4c-7.8,0-15-1.2-21.6-3.6c-6.7-2.4-12.9-6.2-18.6-11.5l18.8-20.6
				c2.7,3.6,6.1,6.4,10.2,8.4c4.1,2,8.4,3,12.8,3c2.1,0,4.3-0.3,6.5-0.8c2.2-0.5,4.2-1.3,5.9-2.3c1.7-1,3.2-2.3,4.2-3.9
				c1.1-1.6,1.6-3.4,1.6-5.6c0-3.6-1.4-6.4-4.1-8.5c-2.8-2.1-6.2-3.9-10.4-5.3c-4.2-1.5-8.7-2.9-13.5-4.4c-4.9-1.5-9.4-3.4-13.5-5.9
				c-4.2-2.5-7.6-5.7-10.4-9.8c-2.8-4.1-4.1-9.4-4.1-16.1c0-6.4,1.3-12.1,3.8-16.9c2.5-4.8,5.9-8.9,10.1-12.2
				c4.2-3.3,9.1-5.7,14.6-7.4s11.2-2.5,17.1-2.5c6.8,0,13.3,1,19.6,2.9c6.3,1.9,12,5.1,17.1,9.6L940.7,313.7z"/>
			<path d="M993.1,284.4h81.3v24.4h-55v22.3h51.9v24.4h-51.9v24.4h58v24.4h-84.4V284.4z"/>
			<path d="M1154.2,284.4h21.8l52.1,119.7h-29.8l-10.3-25.4h-46.5l-10,25.4h-29.1L1154.2,284.4z M1164.3,319.3l-14.5,37.2h29.3
				L1164.3,319.3z"/>
			<path d="M1254.6,284.4h46.3c6.1,0,11.9,0.6,17.3,1.8c5.5,1.2,10.3,3.2,14.4,5.9c4.1,2.8,7.4,6.5,9.8,11.2
				c2.4,4.7,3.6,10.5,3.6,17.5c0,8.5-2.2,15.6-6.6,21.6c-4.4,5.9-10.8,9.7-19.3,11.2l30.4,50.6h-31.6l-25-47.9h-13v47.9h-26.4V284.4
				z M1281,334h15.6c2.4,0,4.9-0.1,7.5-0.2c2.6-0.2,5-0.7,7.2-1.5c2.1-0.8,3.9-2.2,5.3-4c1.4-1.8,2.1-4.3,2.1-7.6
				c0-3-0.6-5.5-1.9-7.3c-1.2-1.8-2.8-3.2-4.7-4.1c-1.9-1-4.1-1.6-6.6-1.9c-2.5-0.3-4.9-0.5-7.3-0.5H1281V334z"/>
			<path d="M1456.4,315.6c-2.6-3.2-5.8-5.6-9.6-7.3c-3.8-1.7-8.1-2.5-13.1-2.5c-5,0-9.6,1-13.8,2.9c-4.2,1.9-7.9,4.6-11,8
				c-3.1,3.4-5.5,7.5-7.3,12.3s-2.6,9.9-2.6,15.4c0,5.6,0.9,10.8,2.6,15.5c1.7,4.7,4.1,8.7,7.2,12.2c3,3.4,6.6,6.1,10.7,8
				c4.1,1.9,8.5,2.9,13.3,2.9c5.4,0,10.2-1.1,14.4-3.4c4.2-2.3,7.6-5.4,10.3-9.5l22,16.4c-5.1,7.1-11.5,12.3-19.3,15.7
				c-7.8,3.4-15.8,5.1-24,5.1c-9.4,0-18-1.5-25.9-4.4c-7.9-2.9-14.7-7.1-20.5-12.6c-5.7-5.5-10.2-12.1-13.4-19.9
				c-3.2-7.8-4.8-16.5-4.8-26s1.6-18.3,4.8-26c3.2-7.8,7.7-14.4,13.4-19.9c5.7-5.5,12.6-9.7,20.5-12.6c7.9-2.9,16.5-4.4,25.9-4.4
				c3.4,0,6.9,0.3,10.6,0.9c3.7,0.6,7.3,1.6,10.8,3c3.6,1.4,7,3.2,10.2,5.4c3.3,2.3,6.2,5,8.8,8.3L1456.4,315.6z"/>
			<path d="M1507.2,284.4h26.4v44.6h51.2v-44.6h26.4v119.7h-26.4v-51.7h-51.2v51.7h-26.4V284.4z"/>
		</g>
		<g>
			<path d="M748,199.7c0-2.1-1.5-3.9-3.6-4.4c-1.1-0.2-1.8,1.3-2.1,2.1c-0.9,3.1-1.4,6.3-1.7,9.5c-0.5,5.2-1,17.4-0.1,23.7
				c0.4,2.6,1.3,4.3,3.9,4.9c1.3,0.3,2.7,0.1,3.9-0.4c0.8-0.5,1.3-1.3,1.5-2.1c0.4-2.5,0.4-5.1,0.2-7.6c-0.1-2.7-0.2-5.5-0.3-8.2
				C749.5,213.4,749,203.9,748,199.7z"/>
			<path d="M753.9,209.9c0.4,1.3,1.4,2.4,2.6,3c1.3,0.5,2.6,0.8,4,1c1.3,0.2,6.7,0.6,10.2,0.9c3.5,0.3,9.7,1,13.1,2.4
				c0.8,0.3,1.5,0.7,2.2,1.2c0.1,0.2,0.4,0.5,0.5,0.6c0.1,0,0.1,0,0.1,0c0.3,0.1,0.5,1.1,0.5,1.2c-0.1,0.9-0.6,1.7-1.4,2.2
				c-5.1,3.6-12.2,4.7-18.5,4.5c-2.1,0-4.1-0.4-6-1.3c-0.9-0.4-2.1-1.4-2-2.4c0.3-2,2.6-2.5,4.4-2.3c1.1,0.2,2.3,0.5,3.3,0.9
				c4,1.6,5.9,3,9.4,2.4c1.3-0.2,6-1.2,6.5-3.1c0.1-0.5-0.1-1-0.4-1.3c-1.3-0.7-2.6-1.4-4-1.8c-3.5-1.1-7-1.7-10.6-2
				c-3.7-0.1-8.7,0.6-11,3.7c-1.4,2-1.5,4.7-0.3,6.8c1.8,2.8,4.4,5,7.5,6.3c4.6,2.2,9.7,3.1,14.7,2.6c2.7-0.3,5.4-1,7.8-2.1
				c6.3-2.7,9.2-9.9,6.5-16.2c-0.2-0.4-0.4-0.8-0.6-1.1c-1-2-2.6-3.5-4.7-4.4c-2.8-1.1-5.7-1.8-8.6-2h-0.4l-14.5-1.7H764
				c-0.6-0.1-3.6-0.4-2.6-1.6c0.5-0.3,1.1-0.6,1.7-0.7c6.6-1.8,14.9-1.6,21.8-2c2.3-0.1,4.5-0.3,6.7-0.8c1.7-0.4,2.9-1.7,3.3-3.4
				c0.2-0.9-0.3-1.4-1.1-1.9c-5.7-3-15.1-3-20.9-2.3c-6,0.7-14,2.6-17.5,7.5C753.9,204.8,753.4,207.4,753.9,209.9z"/>
			<path d="M733.4,183.8c0.1,0.7,0.1,1.4,0,2c0,1.6,0.7,3.1,1.9,4.2c0.7,0.7,1.8,0.7,2.5,0c0,0,0,0,0,0c0.3-0.3,0.6-0.6,0.8-1
				c0.3-0.7,0.7-1.3,1.1-1.9c0,0,0.3,0.1,0.5,0.2c0.6,0.2,1.3,0.4,2,0.5c0.8,0,1.6,0.3,2.4,0.3c2.9,0.1,5.7-0.4,8.4-1.5
				c5-2,9.5-5.1,13.2-9c2.4-2.4,4.5-6.3,3.7-9.9c-0.4-1.7-1.3-3.2-2.7-4.3c-1.1-0.9-2.4-1.5-3.8-1.8c-0.3,0-0.7-0.1-1-0.2
				c-0.2-0.2-0.4-0.4-0.5-0.6c-1.1-1.2-2.5-2.1-4-2.7c-4-1.4-9.3-0.3-12.8,1.2c-3.8,1.6-7.2,3.9-10,6.8c-2.6,2.8-4.7,6.4-4.5,10.3
				c0.1,1.5,0.5,2.9,1.2,4.3C732.4,181.8,732.9,182.8,733.4,183.8z M756.2,168.5c0.9-0.5,1.9-0.9,2.9-1.2c1.1-0.5,2.5-0.5,3.6,0
				c1,0.4,1.8,1.4,1.9,2.5c0.4,3.7-3.8,6.8-6.7,8.4c-2.9,1.6-6.2,2.6-9.5,2.9c-1.3,0.1-4.8,0.1-4.9-0.3c0.1-0.3,0.3-0.6,0.5-0.8
				c0.5-0.6,1.1-1.5,1.7-2.2C748.6,174.1,752.2,171,756.2,168.5z M739.5,169.6c1.6-1.4,3.6-2.5,5.7-3.2c0.7-0.1,2.1-0.3,2.1-0.3
				s-0.9,0.7-1.6,1.3c-2.6,2.3-5,4.8-7.1,7.5c-0.9,1.3-2,3-2,3l-0.4-0.9C735,174.4,737.4,171.4,739.5,169.6z"/>
			<path d="M800.4,235.4c0.8,0.5,1.8,0.5,2.7,0.2c1.3-0.6,1.6-1.7,1.9-3c0.4-2.7,0.6-5.4,0.7-8.1c0-0.3,0.3-10.6,0.6-12.8
				c0-0.3,0.1-0.8,0.4-0.7c0.3,0.1,0.5,0.2,0.6,0.5c0.6,0.9,4.5,8.4,6.6,12.3c0.7,1.1,4.5,7.7,6.8,9.1c2.3,1.3,5.2,0.1,6.8-1.3
				c1.2-1.2,2.1-2.6,2.8-4.1c1.4-4.1,1.9-8.5,1.5-12.8c-0.3-3.6-1-7.2-2.2-10.7c-0.3-1-1.8-4.7-2.2-5.4c-1.1-2.1-4.9-8.3-7.7-9.3
				c-0.7-0.5-1.6-0.3-2.1,0.3c-0.3,0.4-0.4,0.8-0.2,1.3c0,1,0.2,2,0.4,3c0.8,3.1,1.8,6.4,2.6,9.6c0.9,3.3,1.6,6.6,2.1,10
				c0.1,1,0.2,2,0.4,3.2c0.1,0.7,0.2,4.5,0.1,4.6s-0.5,0.2-0.9,0c-0.3-0.3-0.5-0.6-0.7-0.9c-2-3-4-6.2-6.2-9.5
				c-1.9-2.9-4.8-7-7-10.1c-0.7-1.3-2-2.2-3.4-2.5c-2.2-0.2-3.2,3-4,5c-2.8,7.8-4.1,16.1-4,24.4C797,229.9,797.6,234.4,800.4,235.4z
				"/>
			<path d="M871.5,231.4c-4.1,10.8-5.6,15.6-7.1,26.4c-0.4,3.1-0.9,8.4,1.2,11.2c1,1.3,2.3,2.3,3.8,3c1.1,0.6,1.5,0.8,2.4,0.2
				c0.4-0.2,0.5-0.3,0.6-0.6s2.3-10.6,3.1-14.6c0.5-2.6,2.8-11.2,3.8-14.4c0.6-1.9,1.4-4.2,1.4-4.2h1.5c5.2-0.1,10.2-1.7,14.4-4.7
				c4.1-2.6,7.4-6.2,9.6-10.4c2-4,2.8-8.5,2.4-13c-0.4-3.6-1.8-8.1-5-10.3c-1.8-1.2-4.2-1.2-6,0c-2.3,1.2-4.4,2.8-6.1,4.7
				c-1.2,1.1-5.2,5.3-6.2,6.4c-1,1.1-1.9,2.3-3.2,3.9c-2.3,3-5.7,7.8-5.7,7.8c-0.1-0.7-0.2-1.4-0.2-2c0.1-1.1,0.3-2.2,0.6-3.3
				c0.8-3,2-5.9,3.6-8.6c1.9-3.3,4.7-7.3,5.3-11.2c0.2-1.2,0-2.6-1.2-2.7s-3.9,3.2-4.3,3.7c-5.4,6.7-10.3,15.1-10.3,23.5
				c0.1,3,0.7,6,2,8.7C871.7,231.2,871.7,231.3,871.5,231.4z M887.5,225.1c1.9-2.6,3.8-6,6-9c2.1-3.2,4.6-6.1,7.4-8.7
				c0.4-0.3,0.9-0.3,1.2,0.1c0,0,0,0,0.1,0.1c1.2,1.6,1,5.2,0.6,7c-0.9,3.7-3,7-6,9.4c-2.4,1.9-5.2,3.2-8.2,3.9
				c-0.8,0.2-1.7,0.2-2.6,0.1C886.4,227,887,226,887.5,225.1L887.5,225.1z"/>
			<path d="M836.3,231.6c0.2,0.5,1.2,2,1.3,2c0.4,0.4,0.7,0.8,1.2,1.1c0.2,0.2,1,0.7,1,0.7c0.6,0.3,1.2,0.6,1.8,0.8
				c1.5,0.6,3.2,0.7,4.8,0.5c4.9-0.6,11.5-3.7,15.4-6.7c1.2-0.9,2.2-1.8,2.2-3.1c-0.1-1.3-0.6-2.5-1.5-3.5c-1-1.3-2-1.2-4-0.9
				c-3.7,0.6-8.1,1.2-11.1,1.8c-0.6,0.1-1.3,0.2-2,0.2h-0.9c0,0,0.6-2,1.1-3.9s1.3-3.7,1.3-3.7l1.7-0.2c1.3-0.1,11.2-0.2,12-0.4
				c1.7-0.3,2.1-1.3,2-3.4c0-1.8-0.6-3.1-2.3-3.4c-0.7-0.1-1.3-0.1-2-0.1c-3.2,0-9,0.1-9,0.1l1.6-5.4c0,0,3.2,0,5.5,0
				c1.5,0,9.4-0.1,11.9-1.6c1.6-1,0.9-2.8-0.2-4.3c-1.6-2.7-4.5-4.3-7.6-4.3c-2.2-0.1-9.2,0.7-10.7,0.9l-5.3,0.7
				c-1.5,0.2-6.1,1.1-6.7,1.3c-1.6,0.5-2.1,1.3-1.3,2.9c0.7,1.2,1.8,2.2,3.2,2.6c1.2,0.4,2.4,0.8,3.7,1c0,0-0.9,2.5-1.5,4.1
				c-0.4,1.1-0.9,2.6-1.6,2.8c-0.1,0-0.3,0-0.4,0c-1.9,0.2-3,1.2-3,2.7c0,1,0.7,3.9,0.7,4.4c0,0.2-0.1,0.3-0.1,0.5
				c-1.2,3.3-1.6,3.3-2.1,5.7c-0.6,2.4-0.5,4.9,0.4,7.2C836,230.9,836.1,231.2,836.3,231.6z"/>
			<path d="M730.9,222.8c0.7-1.4,1.5-2.7,2.2-4.4c0.5-1.4,0.9-2.8,1.2-4.2c0.3-2.1,0.5-4.3,0.4-6.4c-0.1-1.2-0.2-2.3-0.5-3.5
				c0,0-0.3-1.1-0.5-1.9c-0.4-1.3-0.9-2.6-1.5-3.8c-0.7-1.3-1.1-2.4-1.7-3.4c-2.9-5.2-6.6-9.9-10.8-14.1c-2-2-4.7-4.4-6.7-6.1
				c-1-0.9-7.4-5.5-8.5-6.2c-4.4-2.8-8.9-5.3-13.6-7.6c-6-2.9-12.2-5.3-18.6-7.3c-9.7-3.2-19.8-4.7-29.9-4.5
				c-5.2,0.3-10.4,1.1-15.4,2.4c-3.1,0.6-5.7,2.5-7.3,5.2c-0.9,1.3-1.3,2.9-1.1,4.5c0.3,1.3,2.2,1.8,3.8,2c1.5,0.3,4.8,0.4,5.7-0.7
				c0.4-0.4,0.4-1.1,0-1.5c-0.5-0.6-1.2-1-2-1.1c-0.9-0.2-2.6-0.3-3-0.5c-0.2-0.1-0.3-0.1-0.5-0.2l0.2-0.2c0.4-0.2,0.8-0.4,1.2-0.5
				c0.5-0.1,1.1-0.3,1.6-0.4c3.9-1.1,11.6-1.3,15.2-1.1c13.6,0.6,27,3.6,39.5,9c12.7,5.2,27.1,14.1,35.5,24.9
				c3.2,4.1,7.2,10.8,7.6,16.4c0.5,5-1.1,10-4.4,13.7c-2.5,2.7-5.6,4.9-9,6.4c-7.9,3.7-17.5,4.5-26,4.3c-1.1,0-5.4-0.4-6.4-0.6
				c-1.8-0.3-4-0.7-4-0.7l-0.6-26.5c0,0,2.7,0.1,4.6,0.2c6.7,0.5,13.4,1.8,19.8,3.9c1.1,0.4,2.2,1.1,2.3,2.1
				c0.1,0.8-0.6,1.5-1.3,2.1c-0.3,0.3-0.7,0.6-1.1,0.8c-0.8,0.5-2.3,1.2-2.4,1.4c-0.3,0.3-0.3,0.9,0,1.2c0,0,0,0,0,0
				c1.5,0.7,3.2,1.1,4.9,1.1c2.9-0.3,5.6-2,7-4.6c1.2-1.9,1.5-4.3,0.6-6.4c-1.3-3-3.7-5.4-6.7-6.8c-4.3-1.8-8.7-3.1-13.3-3.8
				c-2.5-0.4-5.1-0.7-7.7-0.9c-2.6,0-6.7,0.1-6.7,0.1s-0.1-3.6-0.2-6c-0.3-3.9-1.3-11.7-4.9-13.9c-0.6-0.4-1.4-0.4-1.9,0.1
				c-0.7,1.7-1.3,3.4-1.5,5.3c-0.3,1.7-1.2,9.5-1.2,10.7c0,1.2-0.1,4.5-0.2,4.6c0,0.2-0.1,0-0.1,0.1c-1.3,0.3-2.6,0.5-3.9,0.7
				c-4.5,1-8.8,2.3-13.1,4c-3.3,1.5-8.1,4-9.5,7.3c-0.9,2.2-0.6,4.7,0.7,6.7c1.7,2.8,3.8,5.3,6.2,7.5c0.9,0.8,4.7,4,5.6,4.7
				c3.4,2.5,7.1,4.8,10.9,6.7l2.8,1.4c0,0,0.3,3.1,0.6,4.8c0.4,2.2,1.1,4.1,3.1,5c1.3,0.5,2.7,0.5,4,0.2c1-0.1,1.9-0.8,2.4-1.7
				c0.2-0.6,0.4-1.2,0.5-1.9c0.1-0.9,0.1-2.3,0.1-2.3s3.3,0.8,5.5,1.2c6.4,1.1,13,1.3,19.5,0.6c9-1.1,19.4-4.5,26.2-10.2
				C727.1,228,729.1,225.5,730.9,222.8z M658.5,226.1c-5.1-2.3-9.9-5.2-14.3-8.7c-0.7-0.6-3.4-3.2-3.9-3.8c-0.9-0.8-1.4-1.9-1.4-3.1
				c0.2-1.1,2.5-2.1,3.6-2.5c4.4-1.4,9-2.3,13.6-2.8c2.7-0.3,6.6-0.6,6.6-0.6s-0.1,3.9-0.1,7.9c0,7.5,0.1,15.1,0.1,15.1
				S660.1,226.8,658.5,226.1L658.5,226.1z"/>
		</g>
	</g>
	<path id="Mickey" d="M318.4,228.8c17.4-17.6,47.2-15.9,66.6,3.5c19.4,19.4,20.8,49.2,3.5,66.6c-17.4,17.6-47.2,15.9-66.6-3.5
		S301,246.2,318.4,228.8L318.4,228.8z M254.2,260.6c2-0.1,4-0.2,6-0.2v44.8v129.4c-48.1,0-87.1-39-87.1-87.1
		c0-14.4,3.5-27.9,9.7-39.9c0,0,0,0,0,0c0.1-0.1,0.1-0.2,0.2-0.3c0.1-0.2,0.2-0.4,0.3-0.6c0.1-0.3,0.3-0.5,0.4-0.8
		c-17.7,8.6-38.4,6.6-51.8-7c-17.4-17.3-15.9-47.2,3.5-66.5c19.1-19.4,48.9-21.1,66.6-3.5c12.1,12.1,15,30.3,9.1,46.8
		c2.4-1.6,4.8-3.1,7.3-4.5c0.1,0,0.1-0.1,0.2-0.2c0.1-0.1,0.3-0.1,0.4-0.2c0.7-0.4,1.4-0.7,2-1c1-0.5,2-1,3-1.5
		c0.7-0.3,1.5-0.6,2.2-1c1-0.4,2-0.8,3-1.2c0.8-0.3,1.6-0.6,2.3-0.8c1-0.4,2-0.7,3.1-1c0.8-0.2,1.6-0.5,2.4-0.7
		c1.1-0.3,2.1-0.6,3.2-0.8c0.8-0.2,1.6-0.4,2.4-0.5c1.1-0.2,2.3-0.4,3.4-0.6c0.8-0.1,1.5-0.3,2.3-0.4c1.3-0.2,2.6-0.3,3.9-0.4
		C252.9,260.7,253.5,260.6,254.2,260.6z M225.6,353.7H217v9.3h8.6V353.7z M225.6,336.5H217v9.3h8.6V336.5z M251.5,370.9h-17.3v9.3
		h17.3V370.9z M251.5,353.7h-17.3v9.3h17.3V353.7z M251.5,336.5h-17.3v9.3h17.3V336.5z M251.5,319.4h-17.3v9.3h17.3V319.4z
		 M295.6,394.7v-10.1l-13.6-13.6h-13.2v9.3h9.3l8.2,8.2v6.3c-4.3,1.8-7.4,6.1-7.4,11.1c0,6.6,5.4,12,12,12c6.6,0,12-5.4,12-12
		C302.9,400.8,299.9,396.5,295.6,394.7z M325.7,357.9c-5,0-9.3,3-11.1,7.4h-12.5l-11.6-11.6h-21.7v9.3h17.9l11.6,11.6h16.4
		c1.8,4.3,6.1,7.4,11.1,7.4c6.7,0,12-5.4,12-12C337.7,363.3,332.3,357.9,325.7,357.9z M295.6,315v-10.2h0c4.4-1.8,7.4-6.1,7.4-11.1
		c0-6.6-5.4-12-12-12c-6.6,0-12,5.4-12,12c0,5,3.1,9.3,7.4,11.1h0v6.3l-8.2,8.2h-9.3v9.3h13.2L295.6,315z M302.1,334.3h12.5
		c1.8,4.3,6.1,7.4,11.1,7.4c6.7,0,12-5.4,12-12c0-6.6-5.4-12-12-12c-5,0-9.3,3-11.1,7.4h-16.4l-11.6,11.6h-17.9v9.3h21.7
		L302.1,334.3z"/>
</g>
</svg>
